<svg xmlns="http://www.w3.org/2000/svg" viewBox="0 0 1200 1200"><path fill="#5df" d="M543 1104H167c-22 0 -42 -10 -54 -28s-16 -40 -9 -61l119 -341c2 -5 4 -10 7 -14 41 32 301 245 313 444"/><path fill="#008033" d="m828 901 -286 57c-17 -35 -39 -69 -63 -101l195 -76z"/><path fill="#ff2a2a" d="M939 635 670 739c21 -25 51 -63 81 -109h163a66 66 0 0 1 24 5z"/><path fill="#002b11" d="m869 934 202 159c-11 7 -24 12 -37 12l-450 0c-2 -37 -11 -73 -25 -109z"/><path fill="#f0f" d="M1096 1061 717 764l255 -99c2 3 3 7 5 10l119 341c5 15 5 31 -1 45z"/><path fill="#c83737" d="m568 779 -115 45c-73 -91 -157 -162 -191 -189 7 -3 15 -4 24 -4h163c49 74 97 127 107 139 4 4 8 7 12 10z"/><path fill="#06f" d="M600 748c6 0 11 -2 15 -6 9 -9 212 -233 212 -419 0 -125 -102 -227 -227 -227s-227 102 -227 227c0 186 203 410 212 419 4 4 9 6 15 6zM485 322c0 -63 52 -115 115 -115s115 51 115 115c0 63 -51 115 -115 115 -63 0 -115 -51 -115 -115"/></svg>